<?xml version="1.0" standalone="no"?>
<!DOCTYPE svg PUBLIC "-//W3C//DTD SVG 20010904//EN"
 "http://www.w3.org/TR/2001/REC-SVG-20010904/DTD/svg10.dtd">
<svg version="1.0" xmlns="http://www.w3.org/2000/svg"
 width="436.000000pt" height="436.000000pt" viewBox="0 0 436.000000 436.000000"
 preserveAspectRatio="xMidYMid meet">
<metadata>
Created by potrace 1.14, written by Peter Selinger 2001-2017
</metadata>
<g transform="translate(0.000000,436.000000) scale(0.100000,-0.100000)"
fill="#000000" stroke="none">
<path d="M2205 4038 c-53 -35 -78 -80 -96 -171 -10 -48 -9 -63 10 -116 11 -34
21 -69 21 -78 0 -9 5 -31 12 -49 9 -27 9 -38 -2 -58 -10 -19 -11 -49 -6 -123
12 -152 10 -323 -5 -378 -19 -74 -14 -220 10 -259 10 -17 22 -46 26 -64 5 -26
16 -37 56 -57 29 -15 49 -21 49 -14 0 8 4 8 15 -1 19 -16 27 -10 54 47 13 26
32 55 42 63 29 24 51 141 49 255 -1 55 -5 101 -9 103 -5 1 -17 9 -27 16 -18
14 -18 15 -1 34 10 11 22 49 28 88 6 38 14 92 18 120 4 28 4 82 0 120 -6 52
-4 80 8 114 25 73 28 195 8 276 -18 74 -28 91 -60 105 -11 5 -35 21 -54 34
-46 34 -87 32 -146 -7z"/>
<path d="M1534 3829 c-48 -38 -49 -39 -79 -142 -25 -86 -25 -129 -3 -192 13
-36 47 -75 64 -75 24 0 27 -23 7 -40 -20 -15 -21 -26 -18 -176 2 -120 6 -170
19 -204 11 -28 15 -57 11 -78 -8 -43 30 -196 60 -243 13 -19 33 -60 46 -90 32
-77 34 -79 99 -79 74 0 85 5 111 46 27 45 28 128 1 175 -15 25 -21 62 -26 138
-3 57 -10 109 -16 115 -5 5 -10 22 -10 36 0 15 -3 30 -7 34 -4 3 -8 75 -10
159 -1 83 -5 161 -7 172 -3 12 -22 29 -41 38 -37 17 -39 37 -5 37 26 0 29 8
39 102 7 66 6 85 -5 94 -8 6 -14 29 -14 51 0 47 -30 97 -79 130 -47 32 -90 30
-137 -8z"/>
<path d="M2824 3808 c-52 -46 -69 -93 -89 -249 -16 -120 -17 -142 -4 -185 7
-27 12 -53 10 -59 -11 -29 -23 -111 -31 -205 -12 -138 -15 -147 -60 -201 -71
-85 -77 -193 -19 -329 17 -41 36 -81 41 -87 16 -20 62 -15 98 10 33 22 92 93
109 133 5 11 21 38 35 59 31 46 33 91 6 138 -21 35 -24 105 -6 119 5 3 13 30
17 60 4 29 14 89 22 132 10 56 11 92 4 124 -8 39 -7 45 12 59 12 8 21 20 19
26 -2 12 5 44 19 97 4 14 8 92 10 175 2 141 1 151 -19 172 -22 23 -74 43 -115
43 -12 0 -39 -15 -59 -32z"/>
<path d="M3432 3081 c-67 -23 -86 -41 -123 -117 -27 -54 -31 -75 -33 -152 -2
-64 -7 -96 -19 -113 -10 -13 -17 -32 -17 -42 0 -16 -42 -92 -112 -206 -34 -54
-44 -114 -39 -226 2 -27 0 -65 -4 -83 -9 -42 15 -82 51 -82 50 0 124 31 139
59 7 15 52 87 99 160 79 122 86 138 86 184 0 54 74 307 116 393 38 80 28 184
-23 224 -31 24 -51 24 -121 1z"/>
<path d="M1850 2513 c-8 -3 -26 -16 -40 -28 -14 -13 -49 -31 -78 -40 -65 -21
-86 -47 -113 -139 -16 -53 -20 -88 -17 -138 6 -79 25 -113 112 -199 31 -31 56
-64 56 -72 0 -32 -28 -40 -111 -34 -71 6 -82 4 -100 -14 -15 -15 -17 -24 -9
-39 10 -18 7 -20 -26 -20 -61 0 -98 -31 -117 -97 -21 -76 -67 -126 -103 -112
-14 5 -48 9 -76 9 -34 0 -69 9 -105 26 -65 30 -111 34 -129 10 -17 -24 -27 -4
-14 29 15 41 12 61 -19 128 -18 38 -39 68 -55 77 -14 7 -26 22 -26 33 0 54
-93 173 -163 209 -60 30 -271 36 -332 9 -54 -24 -65 -44 -61 -112 3 -59 23
-106 67 -157 16 -18 29 -37 29 -42 0 -4 15 -18 33 -29 18 -11 39 -32 47 -46
14 -25 121 -108 157 -122 10 -4 42 -25 72 -47 29 -23 67 -51 83 -62 29 -22 70
-80 108 -153 17 -34 174 -225 249 -303 14 -15 33 -34 41 -43 41 -44 262 -185
291 -185 7 0 22 -8 33 -19 12 -10 66 -37 121 -61 97 -41 101 -42 152 -30 41 9
60 9 87 -1 27 -10 44 -10 73 -1 21 6 54 9 74 6 28 -5 41 -1 65 19 20 17 35 23
44 17 7 -4 19 -6 27 -3 8 3 22 -2 33 -12 12 -11 28 -15 41 -12 21 6 57 -27
150 -136 30 -35 143 -77 208 -77 143 0 253 127 300 345 12 55 26 118 31 140 5
22 9 56 10 76 0 28 6 41 25 53 14 9 25 26 25 38 0 12 9 55 21 96 11 40 18 80
15 89 -8 20 11 53 30 53 22 0 67 105 72 168 3 29 8 55 13 58 5 3 9 19 9 37 0
17 10 71 22 119 20 81 20 92 7 135 -19 60 -56 85 -177 120 -46 13 -66 24 -72
40 -5 11 -14 24 -20 28 -6 4 -22 24 -35 45 -15 23 -45 49 -77 67 -31 17 -70
50 -97 83 -24 30 -51 59 -60 65 -22 12 -103 26 -173 29 -44 2 -63 9 -88 29
-36 31 -51 33 -84 12 -21 -14 -24 -14 -29 0 -8 19 -53 19 -86 1 -22 -12 -31
-11 -83 16 -55 29 -59 30 -82 14 -23 -15 -28 -14 -70 3 -25 11 -47 28 -51 40
-6 20 -25 25 -55 14z m612 -443 c105 -32 218 -122 274 -216 68 -115 86 -241
55 -388 -12 -55 -21 -136 -21 -182 0 -46 -4 -85 -9 -88 -21 -13 -41 7 -41 40
0 23 -5 34 -14 34 -21 0 -28 -32 -26 -113 4 -114 2 -137 -16 -144 -9 -3 -25
-1 -36 6 -28 17 -33 -7 -20 -100 13 -89 4 -129 -27 -129 -29 0 -33 24 -26 165
6 133 1 163 -29 152 -12 -5 -16 -26 -18 -99 -3 -85 -5 -93 -23 -93 -18 0 -20
7 -21 88 0 48 -5 92 -10 97 -6 6 -35 5 -78 -2 -51 -8 -87 -8 -144 0 -285 45
-476 315 -418 592 21 99 56 168 122 240 141 152 328 202 526 140z"/>
<path d="M2203 1946 c-104 -34 -185 -106 -232 -205 -22 -47 -26 -70 -26 -146
0 -77 4 -98 27 -147 35 -76 104 -148 175 -184 52 -26 68 -29 153 -29 83 0 102
3 155 28 287 134 285 533 -3 665 -68 31 -184 39 -249 18z"/>
</g>
</svg>
