<svg width="149" height="194" viewBox="0 0 149 194" fill="none" xmlns="http://www.w3.org/2000/svg">
<path d="M143.322 123.275C142.655 117.262 143.322 108.576 145.327 97.2168L137.631 99.8895L113.936 124.277C110.818 126.505 107.915 128.955 107.257 130.625C106.737 131.944 103.848 133.903 101.899 135.636C98.8918 138.309 95.8825 134.634 95.2143 137.641C94.5462 140.648 92.2668 146.911 94.2126 146.327C97.5521 145.325 98.0056 157.02 97.8895 159.69C97.5554 167.374 95.5509 175.726 101.23 175.726C107.587 175.726 105.239 168.71 105.239 166.372C105.239 164.033 101.899 146.035 107.913 145.659C113.62 145.302 111.535 166.717 111.254 170.381C110.92 174.724 107.245 193.704 114.912 193.704C122.58 193.704 120.867 182.334 119.59 174.39C119.268 172.385 117.643 159.884 119.59 159.022C122.609 157.686 121.802 162.259 125.95 161.695C133.312 160.692 130.293 142.652 130.293 130.625C130.293 124.462 132.297 121.939 134.636 122.607C136.975 123.275 134.937 128.621 135.638 130.959C136.641 134.3 140.651 134.968 142.655 132.964C144.66 130.959 143.814 127.705 143.322 123.275Z" fill="#F4AC3F"/>
<circle cx="74.5004" cy="74.5004" r="64.4779" stroke="#F4AC3F" stroke-width="20.045"/>
</svg>
