<svg width="190" height="244" viewBox="0 0 190 244" fill="none" xmlns="http://www.w3.org/2000/svg">
<path fill-rule="evenodd" clip-rule="evenodd" d="M95.1681 168.671C136.211 168.671 169.483 135.398 169.483 94.3553C169.483 53.3121 136.211 20.04 95.1681 20.04C54.1249 20.04 20.8528 53.3121 20.8528 94.3553C20.8528 135.398 54.1249 168.671 95.1681 168.671ZM95.1681 188.711C147.279 188.711 189.523 146.466 189.523 94.3553C189.523 42.2443 147.279 0 95.1681 0C43.0572 0 0.812851 42.2443 0.812851 94.3553C0.812851 146.466 43.0572 188.711 95.1681 188.711Z" fill="#F4AC3F"/>
<path d="M181.906 154.017C181.061 146.401 181.906 135.4 184.445 121.014L174.698 124.399L144.688 155.286C140.739 158.107 137.063 161.21 136.229 163.325C135.571 164.996 131.912 167.477 129.443 169.672C125.635 173.057 121.824 168.403 120.977 172.211C120.131 176.019 117.244 183.952 119.709 183.212C123.938 181.943 124.512 196.755 124.365 200.137C123.942 209.868 121.404 220.446 128.597 220.446C136.647 220.446 133.674 211.561 133.674 208.599C133.674 205.637 129.443 182.842 137.06 182.366C144.289 181.914 141.648 209.036 141.291 213.676C140.868 219.177 136.214 243.215 145.925 243.215C155.636 243.215 153.466 228.815 151.85 218.754C151.442 216.215 149.383 200.382 151.85 199.29C155.673 197.598 154.651 203.391 159.904 202.675C169.229 201.406 165.405 178.558 165.405 163.325C165.405 155.519 167.943 152.324 170.905 153.171C173.867 154.017 171.286 160.787 172.175 163.749C173.444 167.98 178.523 168.826 181.061 166.287C183.6 163.749 182.529 159.628 181.906 154.017Z" fill="#F4AC3F"/>
</svg>
