<svg width="130" height="189" viewBox="0 0 130 189" fill="none" xmlns="http://www.w3.org/2000/svg">
<path fill-rule="evenodd" clip-rule="evenodd" d="M20.04 73.1311C20.04 102.452 43.8097 126.222 73.1311 126.222C82.1342 126.222 90.6139 123.981 98.0428 120.026H129.249C115.834 136.063 95.6737 146.262 73.1311 146.262C32.7419 146.262 0 113.52 0 73.1311C0 32.7419 32.7419 0 73.1311 0C95.6734 0 115.834 10.1994 129.249 26.2351H98.0419C90.6132 22.2808 82.1338 20.04 73.1311 20.04C43.8097 20.04 20.04 43.8097 20.04 73.1311Z" fill="#F4AC3F"/>
<path d="M5.90325 119.372C6.55805 113.469 5.90325 104.943 3.9356 93.793L11.4901 96.4165L34.7496 120.356C37.8104 122.543 40.6597 124.947 41.3057 126.587C41.8156 127.882 44.6515 129.805 46.5655 131.506C49.517 134.13 52.4709 130.522 53.1268 133.474C53.7827 136.425 56.0201 142.574 54.1102 142C50.832 141.017 50.3869 152.497 50.5008 155.118C50.8288 162.661 52.7964 170.859 47.2214 170.859C40.9819 170.859 43.2861 163.973 43.2861 161.677C43.2861 159.381 46.5655 141.714 40.6618 141.345C35.0592 140.994 37.1058 162.016 37.3823 165.612C37.7102 169.876 41.3175 188.507 33.7909 188.507C26.2643 188.507 27.9461 177.345 29.1989 169.548C29.5151 167.58 31.1106 155.308 29.1989 154.462C26.2356 153.15 27.0278 157.64 22.9562 157.086C15.7289 156.102 18.693 138.393 18.693 126.587C18.693 120.537 16.7254 118.061 14.4297 118.717C12.1341 119.372 14.1346 124.62 13.4459 126.915C12.4621 130.195 8.5257 130.85 6.55805 128.883C4.5904 126.915 5.42086 123.721 5.90325 119.372Z" fill="#F4AC3F"/>
</svg>
