<svg width="174" height="244" viewBox="0 0 174 244" fill="none" xmlns="http://www.w3.org/2000/svg">
<path fill-rule="evenodd" clip-rule="evenodd" d="M20.04 94.3553C20.04 135.398 53.3121 168.671 94.3553 168.671C114.828 168.671 133.367 160.392 146.808 147H172.671C155.724 172.161 126.972 188.711 94.3553 188.711C42.2443 188.711 0 146.466 0 94.3553C0 42.2443 42.2443 0 94.3553 0C127.526 0 156.699 17.117 173.524 43H148.071C134.541 28.8519 115.477 20.04 94.3553 20.04C53.3121 20.04 20.04 53.3121 20.04 94.3553Z" fill="#F4AC3F"/>
<path d="M7.61723 154.017C8.46207 146.401 7.61723 135.4 5.07852 121.014L14.8254 124.399L44.8355 155.286C48.7846 158.107 52.4608 161.21 53.2942 163.325C53.9522 164.996 57.611 167.477 60.0806 169.672C63.8886 173.057 67.6999 168.403 68.5461 172.211C69.3924 176.019 72.2791 183.952 69.8149 183.212C65.5853 181.943 65.011 196.755 65.158 200.137C65.5812 209.868 68.1199 220.446 60.9269 220.446C52.8765 220.446 55.8494 211.561 55.8494 208.599C55.8494 205.637 60.0806 182.842 52.4634 182.366C45.2349 181.914 47.8754 209.036 48.2323 213.676C48.6552 219.177 53.3095 243.215 43.5985 243.215C33.8875 243.215 36.0574 228.815 37.6738 218.754C38.0817 216.215 40.1404 200.382 37.6738 199.29C33.8505 197.598 34.8726 203.391 29.6194 202.675C20.2945 201.406 24.1188 178.558 24.1188 163.325C24.1188 155.519 21.5802 152.324 18.6183 153.171C15.6564 154.017 18.2375 160.787 17.3489 163.749C16.0796 167.98 11.0008 168.826 8.46207 166.287C5.92336 163.749 6.99485 159.628 7.61723 154.017Z" fill="#F4AC3F"/>
</svg>
